<svg xmlns="http://www.w3.org/2000/svg" width="512" height="512" viewBox="0 0 200 200"><defs><clipPath id="dm"><circle cx="100.0" cy="100.0" r="100.0"/></clipPath><clipPath id="fm"><polygon points="727.3,-396.5 -527.3,596.5 -30.8,1223.8 1223.8,230.8"/></clipPath><mask id="gm" maskUnits="userSpaceOnUse" x="0" y="0" width="200" height="200"><circle cx="100.0" cy="100.0" r="66.0" fill="#fff"/><rect x="24.0" y="69.0" width="152.0" height="8.0" fill="#000"/><rect x="24.0" y="123.0" width="152.0" height="8.0" fill="#000"/><ellipse cx="100.0" cy="100.0" rx="28.00" ry="66.0" fill="none" stroke="#000" stroke-width="8.0"/></mask><clipPath id="sm"><circle cx="100.0" cy="100.0" r="66.0"/></clipPath></defs><g clip-path="url(#dm)"><circle cx="100.0" cy="100.0" r="100.0" fill="#7fb99e"/><polygon points="727.3,-396.5 -527.3,596.5 -30.8,1223.8 1223.8,230.8" fill="#649a83"/><g transform="rotate(-38.36 100.0 100.0)"><circle cx="100.0" cy="100.0" r="66.0" fill="#16382c" mask="url(#gm)"/></g><g clip-path="url(#fm)"><g transform="rotate(-38.36 100.0 100.0)"><circle cx="100.0" cy="100.0" r="66.0" fill="#101815" mask="url(#gm)"/></g></g><g transform="rotate(-38.36 100.0 100.0)"><g clip-path="url(#sm)"><ellipse cx="65.49" cy="69.00" rx="9.19" ry="12.00" fill="#e8c49c"/><ellipse cx="132.18" cy="129.11" rx="9.71" ry="12.00" fill="#dd9880"/></g></g></g></svg>